<svg xmlns="http://www.w3.org/2000/svg" viewBox="0 0 77.48 36.18"><defs><style>.cls-1{fill-rule:evenodd;}</style></defs><title>logo</title><g id="Layer_2" data-name="Layer 2"><g id="Layer_1-2" data-name="Layer 1"><path class="cls-1" d="M35.42,25.78c-.15-.13-.7-.05-1-.05H31.8l-11.64,0c-.16.18-.05,1-.05,1.27,0,1.29,0,2.58,0,3.87v0H15.21V20.63H30.38l0-5.34H15.21V5.22h4.92l0,5.17,15.09,0q0-5.22,0-10.42H0V36.15H35.45Z"/><path class="cls-1" d="M77.44,24.73c-.1.18-.11-.76-.15-.82-.33-.57-.21-1.14-.6-1.73a14.64,14.64,0,0,0-.8-1.42A8,8,0,0,0,73,18.49a2.54,2.54,0,0,0-1-.38v0c.21-.16.53-.15.77-.27a8.09,8.09,0,0,0,1.6-1c1.16-1,1.34-2.06,2-3.35.53-1,.55-4.59.15-5.77V7.35a13.86,13.86,0,0,0-.5-1.7c-.24-.41-.46-1.06-.74-1.45a9.12,9.12,0,0,0-3-2.68c-.47-.28-1-.37-1.42-.6a4.68,4.68,0,0,0-2.1-.6c0-.06,0,0,0-.07A11.28,11.28,0,0,1,67.2,0L38.92,0V10.42H54.16V5.25l4.92,0V15.44H44v5.34H59.08V30.93h-4.9V25.76l-15.26,0V36.15h27a7.93,7.93,0,0,0,2.12-.1h.55c-.17-.06.77-.14.8-.15-.28-.1,1-.23,1.37-.37,0,0,0-.07,0-.08A9.58,9.58,0,0,0,72,35c-.1,0,.88-.45,1-.52a11.65,11.65,0,0,1,1.1-.73c-.06,0,0-.1.07-.12a5.42,5.42,0,0,1,.82-.7s0-.1.05-.13c.29-.31.54-.69.85-1v-.08c.21-.2.21-.41.38-.65a16.14,16.14,0,0,0,.8-1.8c.14-.28.1-.65.22-.9A16.08,16.08,0,0,0,77.44,24.73Z"/></g></g></svg>